<?xml version="1.0" standalone="no"?>
<!DOCTYPE svg PUBLIC "-//W3C//DTD SVG 20010904//EN"
 "http://www.w3.org/TR/2001/REC-SVG-20010904/DTD/svg10.dtd">
<svg version="1.0" xmlns="http://www.w3.org/2000/svg"
 width="700.000000pt" height="700.000000pt" viewBox="0 0 700.000000 700.000000"
 preserveAspectRatio="xMidYMid meet">
<metadata>
Created by potrace 1.14, written by Peter Selinger 2001-2017
</metadata>
<g transform="translate(0.000000,700.000000) scale(0.100000,-0.100000)"
fill="#000000" stroke="none">
<path d="M3280 6994 c-19 -2 -84 -9 -145 -14 -578 -56 -1180 -283 -1660 -625
-237 -169 -531 -446 -709 -670 -416 -521 -673 -1147 -748 -1820 -17 -155 -17
-575 0 -730 52 -469 197 -931 418 -1327 289 -521 732 -983 1239 -1294 439
-269 920 -432 1460 -496 145 -17 576 -17 730 0 822 91 1556 447 2131 1034 203
206 348 390 487 618 274 449 433 916 499 1465 16 136 16 592 0 730 -101 848
-447 1557 -1043 2141 -555 542 -1249 874 -2029 970 -117 15 -553 27 -630 18z
m324 -1518 c23 -9 37 -24 45 -46 16 -47 16 -3813 0 -3860 -15 -42 -58 -60
-149 -60 -91 0 -134 18 -149 60 -16 47 -16 3813 0 3860 8 21 23 37 43 46 41
17 168 18 210 0z m-409 -671 l25 -24 0 -1281 0 -1281 -25 -24 c-22 -23 -31
-25 -128 -25 -90 0 -108 3 -131 21 l-26 20 0 1289 0 1289 26 20 c23 18 41 21
131 21 97 0 106 -2 128 -25z m-440 -220 l25 -24 0 -1061 0 -1061 -25 -24 c-23
-23 -31 -25 -130 -25 -99 0 -107 2 -130 25 l-25 24 0 1061 0 1061 25 24 c23
23 31 25 130 25 99 0 107 -2 130 -25z m1312 3 l23 -21 0 -1066 0 -1065 -22
-23 c-20 -21 -29 -23 -130 -23 -102 0 -110 1 -133 25 l-25 24 0 1061 0 1061
25 24 c23 23 31 25 131 25 97 0 110 -2 131 -22z m882 -224 c21 -27 21 -32 21
-864 0 -997 18 -890 -151 -890 -61 0 -119 4 -129 10 -10 5 -23 24 -29 41 -15
43 -16 1635 -1 1676 18 47 35 53 156 53 110 0 113 -1 133 -26z m-2660 -195
c62 -22 61 -7 61 -664 0 -489 -3 -602 -14 -629 -19 -46 -64 -60 -174 -54 -78
4 -87 7 -109 32 l-23 27 0 618 c0 605 0 619 20 644 11 14 30 28 43 30 46 9
165 7 196 -4z m2218 -21 l23 -21 0 -626 0 -625 -22 -23 c-20 -21 -29 -23 -132
-23 -99 0 -112 2 -133 22 l-23 21 0 626 0 625 22 23 c20 21 29 23 132 23 99 0
112 -2 133 -22z m-2621 -221 l24 -28 0 -399 0 -399 -24 -28 c-24 -28 -26 -28
-135 -28 -102 0 -112 2 -133 23 l-23 23 -3 397 c-1 306 1 403 11 422 21 42 53
51 160 48 94 -3 100 -4 123 -31z m3496 5 l23 -23 0 -409 0 -409 -23 -23 c-21
-21 -31 -23 -133 -23 -109 0 -111 0 -135 28 l-24 28 0 397 c0 491 -10 464 172
459 86 -2 100 -5 120 -25z m-3953 -97 c16 -8 31 -22 35 -30 8 -22 8 -588 0
-610 -12 -32 -59 -45 -158 -45 -86 0 -98 2 -123 24 l-28 24 0 302 0 302 28 24
c25 22 37 24 123 24 64 0 104 -5 123 -15z m4388 -119 l28 -24 0 -192 0 -192
-29 -25 c-28 -24 -34 -25 -138 -21 -153 4 -148 -4 -148 235 0 111 4 192 11
204 16 30 45 38 151 38 88 1 99 -1 125 -23z m-4808 -109 c27 -30 37 -106 21
-165 -14 -55 -50 -72 -154 -72 -133 0 -155 19 -156 134 0 68 3 83 22 103 20
21 29 23 133 23 104 0 113 -2 134 -23z m5246 -2 c22 -21 25 -33 25 -103 0
-118 -9 -126 -144 -130 -84 -3 -112 -1 -130 12 -55 35 -61 180 -11 224 24 20
37 22 131 22 98 0 107 -2 129 -25z"/>
</g>
</svg>
